<?xml version="1.0" encoding="UTF-8" standalone="no"?>
<!-- Created with Inkscape (http://www.inkscape.org/) -->

<svg
   width="85.725021mm"
   height="124.40702mm"
   viewBox="0 0 85.725021 124.40702"
   version="1.1"
   id="svg5"
   xml:space="preserve"
   xmlns:inkscape="http://www.inkscape.org/namespaces/inkscape"
   xmlns:sodipodi="http://sodipodi.sourceforge.net/DTD/sodipodi-0.dtd"
   xmlns="http://www.w3.org/2000/svg"
   xmlns:svg="http://www.w3.org/2000/svg"><sodipodi:namedview
     id="namedview7"
     pagecolor="#ffffff"
     bordercolor="#000000"
     borderopacity="0.25"
     inkscape:showpageshadow="2"
     inkscape:pageopacity="0.0"
     inkscape:pagecheckerboard="0"
     inkscape:deskcolor="#d1d1d1"
     inkscape:document-units="mm"
     showgrid="false" /><defs
     id="defs2" /><g
     inkscape:label="Vrstva 1"
     inkscape:groupmode="layer"
     id="layer1"
     transform="translate(-197.23616,-8.8310726)"><g
       id="g32764"
       transform="translate(132.70968,-4.2580645)"><path
         style="fill:#000000;stroke-width:0.264583"
         d="m 64.964372,137.01231 c -0.40344,-0.44579 -0.437883,-3.66833 -0.437883,-40.967378 0,-40.483528 0,-40.483528 8.067373,-53.689583 8.067371,-13.206058 8.067371,-13.206058 8.069792,-20.621665 0.0026,-8.015658 0.09796,-8.591684 1.422058,-8.591684 0.814007,0 1.183153,0.340113 2.943476,2.711979 0.837007,1.127787 1.561587,2.050521 1.610175,2.050521 0.04859,0 0.831022,-0.982266 1.738741,-2.182812 1.861651,-2.46222 1.979049,-2.570014 2.805086,-2.575636 0.436317,-0.003 1.100283,0.635328 2.486822,2.390688 1.040368,1.317108 1.974622,2.299373 2.076122,2.182813 0.101496,-0.116561 0.922543,-1.194194 1.824545,-2.39474 2.268479,-3.019296 2.580491,-3.006867 4.981361,0.198437 0.981,1.309688 1.84555,2.376249 1.92123,2.370136 0.0757,-0.0061 0.88881,-1.024598 1.80697,-2.2633 0.91816,-1.238702 1.84116,-2.318104 2.05111,-2.39867 0.83337,-0.319791 1.62877,0.253237 3.02639,2.180264 0.80036,1.103541 1.59073,2.119413 1.75638,2.257494 0.20932,0.17449 0.81333,-0.44045 1.98051,-2.016358 1.617,-2.183256 2.38721,-2.755645 3.25824,-2.4214 0.20995,0.08057 1.13296,1.159968 2.05111,2.39867 0.91816,1.238702 1.72891,2.252186 1.80167,2.252186 0.0728,0 0.88352,-1.013484 1.80167,-2.252186 0.91816,-1.238702 1.84117,-2.318104 2.05112,-2.39867 0.87035,-0.333986 1.6411,0.237968 3.25242,2.413535 0.92043,1.242752 1.71701,2.259549 1.77018,2.259549 0.0532,0 0.83934,-0.982266 1.74706,-2.182812 0.90772,-1.200547 1.77628,-2.270287 1.93012,-2.377199 0.49777,-0.345908 1.19332,-0.214941 1.73493,0.326678 0.50398,0.503971 0.52917,0.881944 0.52917,7.938537 0,7.40937 0,7.40937 6.61458,20.636462 6.61459,13.227092 6.61459,13.227092 6.61459,53.800663 0,38.971001 -0.0191,40.590861 -0.48386,41.011451 -0.44594,0.40358 -3.76959,0.43788 -42.42461,0.43788 -40.295515,0 -41.957945,-0.019 -42.378648,-0.48385 z m 29.029291,-2.75729 c -0.108561,-0.1819 -2.805239,-4.2448 -5.992616,-9.02865 -4.859758,-7.2939 -5.851941,-8.63924 -6.146562,-8.33438 -0.193233,0.19995 -3.214304,4.26285 -6.71349,9.02865 -6.362157,8.66511 -6.362157,8.66511 6.343949,8.66511 10.093769,0 12.665525,-0.068 12.508719,-0.33073 z M 74.538756,121.8406 c 6.129054,-8.37953 6.129054,-8.37953 6.062038,-47.679221 -0.06701,-39.299696 -0.06701,-39.299696 -6.615451,-28.585715 -6.548438,10.713979 -6.548438,10.713979 -6.548438,48.310212 0,36.546774 0.01357,37.578624 0.4864,36.965244 0.26752,-0.34705 3.244474,-4.40178 6.615451,-9.01052 z m 15.24133,-75.813009 c -3.13746,-5.645044 -5.816777,-10.376826 -5.954035,-10.51507 -0.156368,-0.157491 -0.249563,14.315619 -0.249563,38.757475 0,39.008824 0,39.008824 5.886979,47.847364 5.88698,8.83855 5.88698,8.83855 5.954036,-28.493752 0.06706,-37.332298 0.06706,-37.332298 -5.637417,-47.596017 z m 32.503304,65.896089 c 0.46486,-0.24039 1.46903,-0.90807 2.23148,-1.48373 1.38628,-1.04665 1.38628,-1.04665 5.73224,-1.3958 4.46148,-0.35844 5.42553,-0.61721 6.7342,-1.80758 1.33992,-1.21879 1.77721,-3.36512 0.99363,-4.87698 -1.00063,-1.93065 -5.54351,-5.453847 -9.44026,-7.321313 -2.75874,-1.322091 -4.51334,-1.669767 -5.66211,-1.121955 -2.36882,1.129609 -6.15643,8.256428 -6.65857,12.528848 -0.21631,1.84047 0.0521,3.0881 0.87484,4.06582 1.42079,1.68851 3.54436,2.26603 5.19455,1.41269 z m -10.30625,-8.57295 c 2.739,-2.1545 0.0948,-9.263334 -4.19128,-11.268111 -2.34256,-1.095714 -3.98294,-0.600808 -4.64359,1.400982 -0.97775,2.962606 1.74793,8.341489 5.04047,9.946899 1.28796,0.628 2.93873,0.59329 3.7944,-0.0798 z m 26.34111,-8.433265 c 1.62941,-1.160243 3.20441,-4.68 3.20051,-7.152409 -0.004,-2.63415 -1.31748,-4.508474 -3.15908,-4.508474 -1.46321,0 -3.09676,1.490044 -4.13416,3.770979 -1.39383,3.064629 -0.93307,7.241548 0.91336,8.279821 0.86371,0.485677 2.17567,0.324778 3.17937,-0.389917 z M 117.1904,89.593924 c 1.41375,-1.513432 1.29501,-4.294002 -0.30285,-7.091754 -2.65609,-4.650631 -7.26127,-6.023146 -8.58445,-2.558481 -0.58135,1.522246 -0.3861,3.116186 0.65394,5.338715 1.44255,3.082655 3.95892,5.11729 6.32944,5.117719 0.94146,1.72e-4 1.28755,-0.146375 1.90392,-0.806199 z m 11.04516,-1.96561 c 0.42836,-0.360445 1.06006,-1.283179 1.40376,-2.050521 0.5344,-1.193094 0.62492,-1.816714 0.62492,-4.305586 0,-2.465506 -0.0928,-3.117432 -0.6073,-4.264623 -0.73005,-1.627939 -2.01896,-2.943849 -3.09293,-3.157712 -2.59968,-0.517681 -4.88435,4.323257 -4.14529,8.783365 0.75582,4.561229 3.51579,6.931284 5.81684,4.995077 z M 140.5942,42.775333 c -5.95428,-11.90625 -5.95428,-11.90625 -30.97841,-11.90625 -25.024127,0 -25.024127,0 -24.506012,0.859896 0.284961,0.472943 3.283574,5.830755 6.663581,11.90625 6.145467,11.046354 6.145467,11.046354 30.460291,11.046354 24.31482,0 24.31482,0 18.36055,-11.90625 z"
         id="path32759"
         sodipodi:nodetypes="ssssssssssssssssssssssssssssssssssssssssssssssssssssssssssssscsssssssscsssssssssssssssssssssss" /><rect
         style="fill:#000000;fill-opacity:1;stroke:#000000;stroke-width:1.19062;stroke-dasharray:none;stroke-opacity:1"
         id="rect31475"
         width="50.741936"
         height="78.419357"
         x="97.580643"
         y="56.419353" /><path
         style="fill:#ffffff;fill-opacity:1;stroke:#ffffff;stroke-width:0.264583;stroke-opacity:1"
         d="m 119.87952,116.03032 c 0,-1.92895 -0.0226,-1.99948 -0.72761,-2.26559 -2.85669,-1.07837 -5.32901,-3.07277 -6.99179,-5.64024 -0.55652,-0.85931 -1.01166,-1.69274 -1.01142,-1.85208 4e-4,-0.26349 3.85483,-2.83783 4.78115,-3.1933 0.25207,-0.0967 0.56539,0.15611 0.8867,0.71554 2.19062,3.8141 5.6323,5.36151 8.76245,3.93968 1.65612,-0.75227 2.5026,-1.92748 2.5026,-3.4745 0,-2.63709 -0.59007,-3.14855 -6.30501,-5.465138 -4.37094,-1.771785 -6.28827,-2.892304 -7.70705,-4.504118 -1.31957,-1.499119 -1.86499,-3.227779 -1.85666,-5.884544 0.0133,-4.23354 2.36383,-7.519354 6.40611,-8.955046 1.26053,-0.4477 1.26053,-0.4477 1.26053,-2.369972 0,-1.922273 0,-1.922273 3.04271,-1.922273 3.0427,0 3.0427,0 3.0427,2.009146 0,1.830022 0.0504,2.022337 0.56583,2.157112 2.00739,0.524945 4.73362,2.608087 6.25886,4.782472 1.07901,1.538236 1.07901,1.538236 -1.28133,3.306212 -2.24562,1.682036 -2.89752,2.032162 -2.89752,1.556207 0,-0.476918 -2.81385,-3.325017 -3.61627,-3.660291 -1.11262,-0.464882 -3.30071,-0.463129 -4.4176,0.0035 -1.82174,0.761172 -2.64407,3.124801 -1.60384,4.609933 0.49676,0.709229 2.98212,1.97904 6.54916,3.346066 3.09789,1.187233 6.17989,3.174615 7.31574,4.717456 1.72173,2.338638 2.22017,6.777868 1.09327,9.736898 -1.01325,2.66058 -3.55111,4.94578 -6.60018,5.94308 -1.36612,0.44683 -1.36612,0.44683 -1.36612,2.40075 0,1.95392 0,1.95392 -3.0427,1.95392 -3.04271,0 -3.04271,0 -3.04271,-1.99092 z"
         id="path32026" /></g></g></svg>
