<?xml version="1.0" encoding="UTF-8" standalone="no"?>
<!-- Created with Inkscape (http://www.inkscape.org/) -->

<svg
   width="120.14164mm"
   height="138.57098mm"
   viewBox="0 0 120.14164 138.57098"
   version="1.1"
   id="svg5"
   xml:space="preserve"
   xmlns:inkscape="http://www.inkscape.org/namespaces/inkscape"
   xmlns:sodipodi="http://sodipodi.sourceforge.net/DTD/sodipodi-0.dtd"
   xmlns="http://www.w3.org/2000/svg"
   xmlns:svg="http://www.w3.org/2000/svg"><sodipodi:namedview
     id="namedview7"
     pagecolor="#ffffff"
     bordercolor="#000000"
     borderopacity="0.25"
     inkscape:showpageshadow="2"
     inkscape:pageopacity="0.0"
     inkscape:pagecheckerboard="0"
     inkscape:deskcolor="#d1d1d1"
     inkscape:document-units="mm"
     showgrid="false" /><defs
     id="defs2" /><g
     inkscape:label="Vrstva 1"
     inkscape:groupmode="layer"
     id="layer1"
     transform="translate(160.89768,-46.719721)"><path
       style="fill:#000000;stroke-width:0.264583"
       d="m -154.87327,184.96269 c -1.54795,-0.57017 -3.31954,-1.91101 -4.30775,-3.26036 -1.84028,-2.5128 -1.71485,0.69669 -1.71485,-43.87997 V 97.520543 h 2.24896 2.24896 V 137.3231 c 0,27.47895 0.0871,40.03318 0.28141,40.5474 0.38296,1.01359 1.52474,2.18895 2.55436,2.6295 0.71108,0.30425 7.80886,0.36429 43.06609,0.36429 h 42.214702 l -0.0713,-5.75469 -0.0713,-5.75469 -25.09706,-0.0675 -25.097052,-0.0675 -2.07267,1.94981 c -3.58749,3.37486 -7.53817,4.92422 -12.55613,4.92422 -3.26643,0 -5.42802,-0.49015 -8.3152,-1.88553 -2.94083,-1.4213 -6.56013,-4.93724 -8.04653,-7.81673 -2.75729,-5.34148 -2.77027,-12.05143 -0.0334,-17.25972 2.42036,-4.60594 7.05745,-8.2277 12.0295,-9.39552 2.203,-0.51743 6.52149,-0.51844 8.73125,-0.002 2.85224,0.66654 5.85255,2.32293 8.18908,4.52097 l 2.07123,1.94847 h 3.07193 3.07192 V 135.75284 125.3018 h -2.63108 c -3.7876,0 -3.68172,0.12848 -5.33926,-6.47892 -1.1827,-4.71454 -1.28876,-5.36501 -0.97762,-5.9955 0.30474,-0.6175 8.87632,-7.27513 10.45303,-8.11897 0.80057,-0.42845 28.699152,-0.44059 29.534732,-0.0128 1.54787,0.79237 10.25111,7.57843 10.50703,8.1925 0.23355,0.5604 0.0472,1.63006 -1.03732,5.95313 -1.65233,6.58672 -1.54827,6.46069 -5.33467,6.46069 h -2.63108 v 10.4562 10.4562 l 5.75468,-0.0713 5.75469,-0.0713 0.13229,-31.61771 0.13229,-31.617707 0.5731,-1.19062 c 0.31521,-0.65485 2.47254,-4.58391 4.79407,-8.731253 2.32153,-4.147343 4.16997,-7.629921 4.10764,-7.739062 -0.0623,-0.109141 -19.6141,-0.198437 -43.448372,-0.198437 -40.94443,0 -43.35686,0.02554 -43.73051,0.46302 -0.2175,0.254662 -2.64697,4.511146 -5.39882,9.458852 l -5.00336,8.99584 -0.0836,4.43177 -0.0836,4.43177 h -2.23153 -2.23154 v -4.59073 c 0,-2.75343 0.12145,-4.95067 0.30346,-5.4901 0.16691,-0.49466 2.72675,-5.26712 5.68854,-10.60547 l 5.38509,-9.70609 v -5.846679 c 0,-6.242425 0.13901,-7.078554 1.40169,-8.430899 1.35739,-1.453782 -1.62457,-1.367534 47.28163,-1.367534 48.906222,0 45.924262,-0.08625 47.281642,1.367534 1.26268,1.352345 1.4017,2.188474 1.4017,8.430899 v 5.846679 l 5.38508,9.70609 c 2.96179,5.33835 5.52163,10.11081 5.68854,10.60547 0.22232,0.65891 0.30346,10.50978 0.30346,36.843217 v 35.94386 h -2.24896 -2.24896 v -2.38125 -2.38125 h -4.63021 -4.6302 v 7.01145 7.01146 h 4.6302 4.63021 v -2.38125 -2.38125 h 2.25849 2.2585 l -0.0757,9.45886 c -0.0755,9.43803 -0.0771,9.46176 -0.72582,10.78177 -0.83083,1.69056 -2.68639,3.54611 -4.37695,4.37694 l -1.32291,0.65014 -53.313542,0.0485 c -44.69978,0.0407 -53.47331,-0.0103 -54.30239,-0.31573 z M -48.108728,180.5 c 1.02962,-0.44055 2.1714,-1.61591 2.55436,-2.6295 0.15477,-0.40966 0.28141,-2.52302 0.28141,-4.69636 v -3.95152 h -6.22973 -6.22974 l -0.64943,-0.64943 -0.64943,-0.64943 v -10.21052 -10.21051 l 0.64943,-0.64943 0.64943,-0.64943 h 6.22974 6.22973 v -2.38125 -2.38125 h -6.87916 -6.87917 v -2.24896 -2.24896 h 6.87917 6.87916 v -2.38125 -2.38125 h -6.87916 -6.87917 v -2.24896 -2.24895 h 6.87917 6.87916 v -2.38125 -2.38125 h -6.87916 -6.87917 v -2.24896 -2.24896 h 6.87917 6.87916 v -2.38125 -2.38125 h -6.87916 -6.87917 v -2.24896 -2.24896 h 6.88657 6.88657 l -0.0735,-12.633847 -0.0736,-12.63385 -4.46521,-8.00365 c -2.45587,-4.402005 -4.55418,-8.003646 -4.66291,-8.003646 -0.10874,0 -2.20705,3.601641 -4.66292,8.003646 l -4.46521,8.00365 -0.0683,48.484887 -0.0682,48.4849 h 7.41893 c 5.71102,0 7.61493,-0.0839 8.27033,-0.36429 z m -82.306942,-9.18637 c 6.30224,-1.30461 11.05938,-7.15475 11.05938,-13.60039 0,-7.56145 -6.32916,-13.89062 -13.89062,-13.89062 -7.56146,0 -13.89063,6.32917 -13.89063,13.89062 0,8.70898 8.18647,15.36727 16.72187,13.60039 z m -3.36628,-4.96732 c -2.01503,-0.91536 -3.63187,-3.06381 -3.98969,-5.30149 l -0.17311,-1.08262 h 2.27922 2.27922 l 0.3958,0.94728 c 0.26001,0.62228 0.66971,1.05067 1.19418,1.24863 l 0.79838,0.30136 v 2.19095 2.19095 l -0.8599,-0.006 c -0.47294,-0.003 -1.33879,-0.22336 -1.9241,-0.48925 z m -8.59309,-10.96531 v -2.19996 l 0.93241,-0.44463 c 0.67559,-0.32217 0.97674,-0.6663 1.09336,-1.24942 l 0.16096,-0.80478 2.28007,0.0759 2.28008,0.0759 -0.0841,0.92604 c -0.26086,2.87298 -3.34917,5.82083 -6.09818,5.82083 -0.53116,0 -0.56462,-0.13034 -0.56462,-2.19995 z m 13.47506,1.33405 c -0.27148,-0.5578 -0.70726,-0.94167 -1.25677,-1.10704 l -0.8412,-0.25315 v -2.32654 c 0,-2.62193 -0.0734,-2.55552 2.10776,-1.90779 2.46705,0.73264 4.7714,3.58002 4.7714,5.89581 0,0.53129 -0.12883,0.56426 -2.18281,0.5586 l -2.18281,-0.006 z m 60.475982,0.99819 v -6.87916 l -23.74635,-0.0676 c -13.060502,-0.0372 -23.746362,-0.0264 -23.746362,0.0238 0,0.0503 0.23813,1.02244 0.52917,2.1604 0.35902,1.40375 0.52917,2.93509 0.52917,4.7625 0,1.82742 -0.17015,3.35876 -0.52917,4.7625 -0.29104,1.13797 -0.52917,2.11015 -0.52917,2.16041 0,0.0503 10.68586,0.061 23.746362,0.0238 l 23.74635,-0.0675 z m -41.671872,0 v -2.24895 h 2.24896 2.24895 v 2.24895 2.24896 h -2.24895 -2.24896 z m 9.26041,0 v -2.24895 h 2.248962 2.24896 v 2.24895 2.24896 h -2.24896 -2.248962 z m 9.260422,0 v -2.24895 h 2.24896 2.24896 v 2.24895 2.24896 h -2.24896 -2.24896 z m 9.26042,0 v -2.24895 h 2.24895 2.24896 v 2.24895 2.24896 h -2.24896 -2.24895 z m -2.38125,-15.13075 v -3.62137 l -0.72761,0.69536 c -0.40018,0.38245 -1.26338,0.93789 -1.91823,1.23432 -1.10999,0.50245 -1.71024,0.53895 -8.86354,0.53895 -7.153302,0 -7.753542,-0.0365 -8.863542,-0.53895 -0.65484,-0.29643 -1.51805,-0.85187 -1.91823,-1.23432 l -0.7276,-0.69536 v 3.62137 3.62138 h 11.509372 11.50938 z m -13.75834,-9.07507 v -3.43603 l -0.90474,-0.37803 c -1.210002,-0.50557 -1.476512,-1.10141 -1.476512,-3.30109 0,-1.57918 0.0949,-1.96501 0.63855,-2.59708 0.637192,-0.74078 0.645682,-0.74236 3.991662,-0.74236 3.34598,0 3.35447,0.002 3.99166,0.74236 0.53069,0.61697 0.63855,1.02743 0.63855,2.43017 0,2.22905 -0.31712,2.98358 -1.45353,3.4584 l -0.92772,0.38763 v 3.43603 3.43603 h 2.10422 c 2.25249,0 3.16038,-0.26599 3.6648,-1.07369 0.1741,-0.27877 1.03089,-2.29601 1.90397,-4.48274 l 1.58743,-3.97588 v -9.12447 -9.12447 h -11.50938 -11.509372 v 9.12726 9.12726 l 1.74998,4.37386 c 2.0522,5.12924 2.04923,5.12637 5.32762,5.14228 l 2.182812,0.0106 z m -4.762502,-17.46605 v -2.38125 h 2.38125 2.381252 v 2.38125 2.38125 h -2.381252 -2.38125 z m 9.260422,0 v -2.38125 h 2.38125 2.38125 v 2.38125 2.38125 h -2.38125 -2.38125 z m -18.520832,0.0999 c 0,-3.68805 -0.0691,-4.60996 -0.33073,-4.41071 -0.40742,0.31032 -3.74022,2.79609 -3.84906,2.87082 -0.0716,0.0492 1.13299,5.09039 1.40304,5.87176 0.0711,0.20562 0.6179,0.33073 1.44553,0.33073 h 1.33122 z m 36.044802,1.52024 c 0.41441,-1.65553 0.71893,-3.03349 0.67673,-3.06213 -0.10104,-0.0686 -3.42092,-2.54425 -3.84705,-2.86882 -0.26161,-0.19926 -0.33073,0.72543 -0.33073,4.42453 v 4.67643 l 1.37379,-0.08 1.3738,-0.08 z m 19.5177,-61.812844 v -4.630418 h -43.920842 -43.92083 v 4.630208 4.630208 h 43.92083 43.920842 z m -86.424292,62.317084 c -1.37214,-0.56751 -1.41738,-0.86074 -1.41738,-9.18813 v -7.73954 l -0.76345,-0.3948 c -1.11549,-0.57684 -2.80009,-2.603967 -3.15873,-3.801007 -0.17113,-0.5712 -0.31115,-1.50999 -0.31115,-2.08621 0,-0.79271 -0.16949,-1.20375 -0.69648,-1.68909 -2.56458,-2.36191 -2.56458,-7.6522 0,-10.01412 0.55482,-0.51097 0.69766,-0.88767 0.70229,-1.85208 0.0109,-2.26534 1.625,-4.76695 3.79826,-5.88665 0.56428,-0.29072 1.69537,-0.59551 2.51354,-0.677326 1.11946,-0.111935 1.70128,-0.334285 2.35106,-0.898491 1.3674,-1.187307 2.44206,-1.62392 4.32943,-1.75896 1.47631,-0.10563 1.98468,-0.02146 3.17711,0.526013 0.78077,0.358468 1.71724,0.966739 2.08104,1.351711 0.50239,0.531624 0.92054,0.70105 1.7388,0.704522 3.56216,0.01511 6.54709,2.844661 6.9191,6.558911 0.11225,1.12069 0.3208,1.68685 0.80062,2.17344 1.27774,1.29576 1.77394,2.62816 1.77489,4.76597 0.001,2.15351 -0.38224,3.19412 -1.70503,4.63021 -0.56333,0.61159 -0.765,1.14609 -0.87874,2.32901 -0.19281,2.00533 -1.31363,4.00658 -2.91854,5.211117 l -1.23318,0.92555 v 7.48811 c 0,8.24869 -0.0742,8.68708 -1.57503,9.30875 -1.22034,0.50548 -1.94387,0.0687 -5.05115,-3.04918 l -2.75766,-2.76707 -2.91486,2.89515 c -2.91399,2.89431 -3.71641,3.38433 -4.80476,2.93419 z m 5.21644,-9.66521 c 2.41173,-2.32833 2.84515,-2.32478 5.29816,0.0434 l 1.82636,1.7632 v -3.70665 -3.70666 l -1.52136,0.77627 c -1.36234,0.69514 -1.71892,0.76434 -3.41161,0.66207 -1.43611,-0.0868 -2.18304,-0.28578 -3.10886,-0.82834 l -1.21859,-0.71414 v 3.71532 c 0,2.04342 0.0798,3.71532 0.17725,3.71532 0.0975,0 0.97889,-0.77391 1.95865,-1.71979 z m 3.63193,-8.972037 c 0.39295,-0.2052 0.93394,-0.78634 1.20219,-1.29144 0.65161,-1.22693 1.46756,-1.63811 2.73895,-1.38024 1.82731,0.37062 2.51789,0.25476 3.19861,-0.53663 0.581,-0.67544 0.62218,-0.89131 0.45964,-2.40912 -0.23172,-2.16371 -0.0556,-2.63708 1.22411,-3.28993 2.20104,-1.12289 2.20104,-3.59957 0,-4.72246 -1.2797,-0.65285 -1.45583,-1.12622 -1.22411,-3.28993 0.16254,-1.51781 0.12136,-1.73368 -0.45964,-2.40912 -0.68072,-0.79139 -1.3713,-0.90725 -3.19861,-0.53663 -1.27139,0.25787 -2.08734,-0.15331 -2.73895,-1.38024 -0.50517,-0.95119 -1.54367,-1.66452 -2.42328,-1.66452 -0.67038,0 -1.80029,0.90919 -2.22324,1.78893 -0.5602,1.16524 -1.54632,1.56216 -2.94901,1.187 -1.54117,-0.4122 -2.67755,-0.0387 -3.25001,1.06835 -0.35956,0.69531 -0.3728,1.00807 -0.0922,2.17777 0.40075,1.67048 0.18565,2.17115 -1.38634,3.22691 -0.61648,0.41403 -1.23481,1.07677 -1.37407,1.47275 -0.37554,1.06785 0.087,2.04824 1.37407,2.91267 1.57199,1.05576 1.78709,1.55643 1.38634,3.22691 -0.2806,1.1697 -0.26736,1.48246 0.0922,2.17777 0.57246,1.107 1.70884,1.48055 3.25001,1.06835 1.40269,-0.37516 2.38881,0.0217 2.94901,1.187 0.42295,0.87974 1.55286,1.78893 2.22324,1.78893 0.27864,0 0.82813,-0.16789 1.22109,-0.37308 z m 22.01342,-6.63838 v -2.24896 h 18.520832 18.52083 v 2.24896 2.24896 h -18.52083 -18.520832 z m 0,-9.26042 v -2.24896 h 2.38125 2.38125 v 2.24896 2.24896 h -2.38125 -2.38125 z m 9.26041,0 v -2.24896 h 13.890632 13.89062 v 2.24896 2.24896 h -13.89062 -13.890632 z"
       id="path400"
       sodipodi:nodetypes="csscccsssscccccsssssscscccccsssscscscccccccsssssscccccssscssssscssscccccccccccccccssscsccssscccccccccccccccccccccccccccccccccccccccccccccssscccsssssssscscccssccccccccsscccssccsscsssscsccsssssscccccccccccccccccccccccccccccccccccccccccsssssccccccccsssscsscccssscccccccssccccccccccccccccccccssssscssssscccscccccccccsscssssssssssssssscssscssscsssscccscscssssssssssssssssssssssssssssccccccccccccccccccccccccccc"
       inkscape:export-filename="path400.svg"
       inkscape:export-xdpi="96"
       inkscape:export-ydpi="96" /></g></svg>
