<?xml version="1.0" encoding="UTF-8" standalone="no"?>
<!-- Created with Inkscape (http://www.inkscape.org/) -->

<svg
   width="136.13773mm"
   height="122.75798mm"
   viewBox="0 0 136.13773 122.75798"
   version="1.1"
   id="svg5"
   xml:space="preserve"
   xmlns:inkscape="http://www.inkscape.org/namespaces/inkscape"
   xmlns:sodipodi="http://sodipodi.sourceforge.net/DTD/sodipodi-0.dtd"
   xmlns="http://www.w3.org/2000/svg"
   xmlns:svg="http://www.w3.org/2000/svg"><sodipodi:namedview
     id="namedview7"
     pagecolor="#ffffff"
     bordercolor="#000000"
     borderopacity="0.25"
     inkscape:showpageshadow="2"
     inkscape:pageopacity="0.0"
     inkscape:pagecheckerboard="0"
     inkscape:deskcolor="#d1d1d1"
     inkscape:document-units="mm"
     showgrid="false" /><defs
     id="defs2" /><g
     inkscape:label="Vrstva 1"
     inkscape:groupmode="layer"
     id="layer1"
     transform="translate(-38.579587,-51.560496)"><path
       style="fill:#000000;stroke-width:0.264583"
       d="m 41.18849,173.955 c -1.071884,-0.46689 -2.157801,-1.79502 -2.496703,-3.05361 -0.32155,-1.19414 -0.269426,-1.37814 4.646638,-16.40239 2.834318,-8.6621 3.24616,-9.73047 4.053563,-10.51547 1.055512,-1.02621 2.222828,-1.40286 4.354049,-1.40489 1.511321,-0.001 1.592932,-0.0397 3.390559,-1.59075 4.921657,-4.24647 10.882063,-7.07569 17.032594,-8.08485 3.679168,-0.60367 9.140647,-0.39797 12.49023,0.47042 l 2.447396,0.63449 -0.0026,-34.939871 -0.0026,-34.939874 -0.631814,-5.147085 c -0.381456,-3.10752 -0.54551,-5.374082 -0.414015,-5.719941 0.11979,-0.315072 0.540403,-0.826618 0.934699,-1.13677 l 0.716899,-0.563912 h 42.690355 42.69035 l 0.83359,0.744816 c 1.00953,0.902014 1.02458,1.377013 0.23624,7.457267 -0.51621,3.981394 -0.53174,5.559975 -0.53243,54.10729 -7.9e-4,47.08495 -0.0277,50.05925 -0.46332,50.91348 -0.25443,0.49898 -0.79873,1.15383 -1.20955,1.45521 -0.74292,0.54502 -0.89788,0.54835 -28.76045,0.61768 l -28.0135,0.0697 0.38388,1.08805 c 0.82917,2.35011 0.0932,4.59594 -1.87046,5.70812 l -1.05294,0.59636 -35.321878,-0.006 c -28.776631,-0.005 -35.471391,-0.0711 -36.128743,-0.35745 z m 70.25585,-4.1919 c -0.002,-0.1819 -1.64406,-5.33136 -3.64838,-11.44323 l -3.64423,-11.1125 -26.857749,-0.0674 -26.857745,-0.0674 -3.721934,11.36971 c -2.047062,6.25335 -3.658526,11.43313 -3.581029,11.51062 0.0775,0.0775 15.480122,0.14091 34.228058,0.14091 27.095539,0 34.086299,-0.0678 34.083009,-0.33073 z m 57.68331,-55.09948 V 66.90633 H 130.36619 91.604732 v 34.47912 34.47912 l 0.992188,0.47276 c 1.800664,0.85799 5.198988,3.20827 6.848385,4.73634 l 1.622865,1.50349 1.81672,0.006 c 2.19639,0.007 3.71469,0.62073 4.66008,1.88362 0.41356,0.55246 1.63397,3.87541 3.22563,8.78282 1.40821,4.34176 2.66965,8.18153 2.8032,8.53281 l 0.24283,0.63868 h 27.65551 27.65551 z m -63.97452,9.35614 c -1.74224,-0.66945 -3.94885,-2.78047 -4.80165,-4.59364 -0.893549,-1.89981 -1.024875,-4.55554 -0.32715,-6.61568 l 0.53803,-1.58859 -0.53822,-1.58641 c -1.883821,-5.55255 1.99191,-11.317444 7.87347,-11.711245 3.27445,-0.219239 5.93062,0.959673 7.78371,3.454705 l 0.92555,1.24618 h 13.80339 13.8034 l 0.5855,-0.94736 c 2.22295,-3.59682 7.60755,-4.878599 11.58614,-2.75803 0.90667,0.483248 2.01921,1.30086 2.47231,1.81692 2.08981,2.38016 2.83896,5.98346 1.85058,8.90102 l -0.53817,1.58859 0.53822,1.58641 c 1.45701,4.29452 -0.57227,8.97239 -4.78976,11.0413 -1.77069,0.86862 -4.93739,0.9674 -6.93808,0.21642 -1.63881,-0.61514 -3.724,-2.2881 -4.34238,-3.4839 l -0.39479,-0.76345 h -13.86226 -13.86225 l -0.56951,0.92148 c -0.83161,1.34558 -2.53733,2.70301 -4.15893,3.30973 -1.8966,0.70961 -4.73914,0.69486 -6.63715,-0.0344 z m 5.49246,-4.3266 c 1.04198,-0.54236 1.83942,-1.53008 2.37549,-2.94231 l 0.491,-1.29348 h 16.85707 16.85706 l 0.51197,1.37245 c 0.91744,2.45939 3.27986,3.85947 5.50244,3.261 3.63317,-0.97832 4.61859,-5.11972 1.90748,-8.01651 -0.74271,-0.79357 -0.76268,-0.71192 0.59185,-2.41891 0.53505,-0.67425 0.80528,-1.36019 0.89218,-2.26463 0.15935,-1.65839 -0.037,-2.40941 -0.89738,-3.43188 -0.9503,-1.12937 -2.08122,-1.65945 -3.54044,-1.65945 -2.12753,0 -3.62369,1.13397 -4.48301,3.39779 l -0.491,1.29347 h -16.85411 -16.85411 l -0.491,-1.29347 c -0.75336,-1.98467 -1.79426,-2.93647 -3.68304,-3.36781 -1.85929,-0.42459 -4.28245,0.86418 -5.03336,2.67703 -0.54996,1.32772 -0.22041,3.53813 0.70013,4.6961 1.25451,1.57807 1.25706,1.59656 0.36102,2.6171 -1.03886,1.18319 -1.32568,1.92588 -1.32568,3.43267 0,3.35715 3.60024,5.50507 6.60544,3.94084 z M 95.026938,62.077684 c -0.0096,-0.181901 -0.158949,-1.640417 -0.331976,-3.241146 l -0.314595,-2.910416 -1.916982,-0.07774 c -1.435082,-0.05819 -1.91488,0.0083 -1.908604,0.264584 0.0046,0.188276 0.179432,1.592477 0.388493,3.120445 0.20906,1.527969 0.383881,2.867422 0.388493,2.976563 0.0046,0.10914 0.841819,0.198437 1.860465,0.198437 1.314545,0 1.847041,-0.09599 1.834706,-0.330729 z m 8.092242,-2.513542 c -0.25071,-4.002899 -0.11153,-3.770312 -2.25625,-3.770312 -1.000248,0 -1.869399,0.0893 -1.931446,0.198438 -0.08087,0.14225 0.437795,5.674606 0.59532,6.349999 0.0085,0.03638 0.860326,0.06615 1.892976,0.06615 h 1.87754 z m 8.28823,-0.396555 c -0.0954,-1.782806 -0.18465,-3.271231 -0.19844,-3.307611 -0.0138,-0.03638 -0.92921,-0.06615 -2.03427,-0.06615 h -2.00921 l 0.14621,1.256771 c 0.0804,0.691224 0.22081,2.179505 0.31199,3.307291 l 0.16577,2.050521 1.89566,3.18e-4 1.89565,3.17e-4 -0.17336,-3.241465 z m 8.50615,2.116347 c -7.9e-4,-0.618463 -0.0781,-2.106745 -0.1715,-3.307292 l -0.16993,-2.182812 h -1.98398 -1.98398 l 0.17111,2.024295 c 0.0941,1.113362 0.17112,2.601643 0.17112,3.307291 v 1.282997 h 1.98437 1.98438 l -0.002,-1.124479 z m 8.20367,-2.182812 V 55.79383 h -1.98437 -1.98438 v 2.888777 c 0,1.588827 0.0723,3.077109 0.1606,3.307292 0.12495,0.32562 0.56541,0.418514 1.98438,0.418514 h 1.82377 z m 8.3013,2.480468 c 0.0909,-0.454752 0.16537,-1.943033 0.16537,-3.307291 V 55.79383 h -1.98438 -1.98437 v 3.307292 3.307291 h 1.81901 1.81901 z m 8.36933,-0.694531 c 0.001,-0.836745 0.0778,-2.325026 0.17055,-3.307292 l 0.16867,-1.785937 h -1.98381 -1.98381 l -0.17111,2.024295 c -0.0941,1.113362 -0.17112,2.601643 -0.17112,3.307291 v 1.282997 h 1.98438 1.98437 l 0.002,-1.521354 z m 8.32096,-0.529167 c 0.0913,-1.127786 0.1907,-2.586302 0.22101,-3.241145 l 0.0551,-1.190625 -1.90412,-0.07745 -1.90412,-0.07745 -0.14014,0.871202 c -0.0771,0.479162 -0.17273,1.972591 -0.21255,3.318732 l -0.0724,2.447529 1.89565,-1.33e-4 1.89566,-1.34e-4 z m 8.09671,1.984375 c 0.15187,-0.652988 0.63762,-6.33641 0.54912,-6.424909 -0.2063,-0.206297 -3.69985,-0.137874 -3.82478,0.07491 -0.0641,0.10914 -0.20191,1.597421 -0.3063,3.307291 l -0.18979,3.108854 h 1.87818 c 1.03301,0 1.88511,-0.02977 1.89357,-0.06615 z m 8.1867,-0.01006 c 0,-0.04191 0.17764,-1.500426 0.39476,-3.241145 0.21712,-1.74072 0.39572,-3.199926 0.39688,-3.242682 10e-4,-0.04275 -0.86109,-0.04275 -1.91612,0 l -1.91823,0.07774 -0.1807,1.719791 c -0.0994,0.945886 -0.25412,2.404401 -0.34386,3.241146 l -0.16317,1.521354 h 1.86522 c 1.02587,0 1.86522,-0.03429 1.86522,-0.0762 z"
       id="path471"
       sodipodi:nodetypes="ssssccsscccssscccsscssscssccsssscccsssssccccccssccssscccccsscssscccsssscsssscccssccsscccsssssssscccssssssssscsssssssssssscssssccsccccscccccsscccccccccscscccscccccccccccccssccccccsccccsccccsssscssssscscsscsss" /></g></svg>
