<?xml version="1.0" encoding="UTF-8" standalone="no"?>
<!-- Created with Inkscape (http://www.inkscape.org/) -->

<svg
   width="66.010506mm"
   height="56.055939mm"
   viewBox="0 0 66.010506 56.055939"
   version="1.1"
   id="svg5"
   xml:space="preserve"
   xmlns:inkscape="http://www.inkscape.org/namespaces/inkscape"
   xmlns:sodipodi="http://sodipodi.sourceforge.net/DTD/sodipodi-0.dtd"
   xmlns="http://www.w3.org/2000/svg"
   xmlns:svg="http://www.w3.org/2000/svg"><sodipodi:namedview
     id="namedview7"
     pagecolor="#ffffff"
     bordercolor="#000000"
     borderopacity="0.25"
     inkscape:showpageshadow="2"
     inkscape:pageopacity="0.0"
     inkscape:pagecheckerboard="0"
     inkscape:deskcolor="#d1d1d1"
     inkscape:document-units="mm"
     showgrid="false" /><defs
     id="defs2" /><g
     inkscape:label="Vrstva 1"
     inkscape:groupmode="layer"
     id="layer1"
     transform="translate(-88.180231,-135.23962)"><path
       style="fill:#000000;stroke-width:0.264583"
       d="m 120.17393,191.06668 c -0.005,-0.21828 0.4073,-2.12328 0.91575,-4.23333 1.10043,-4.56684 1.36,-6.86432 0.94748,-8.38621 -0.19242,-0.70994 -0.23717,-2.01706 -0.12409,-3.62566 l 0.17682,-2.51548 1.41702,-0.69328 c 0.77937,-0.38131 1.41703,-0.80438 1.41703,-0.94016 0,-0.13578 0.28804,-0.49732 0.64009,-0.80343 0.35204,-0.3061 0.71511,-0.85547 0.80681,-1.22083 0.0917,-0.36536 0.33944,-0.837 0.55054,-1.0481 0.6006,-0.6006 0.46475,-1.06378 -0.67452,-2.29974 -0.96418,-1.04601 -1.05834,-1.27615 -1.05834,-2.58672 v -1.43857 l -2.24896,-2.36311 -2.24895,-2.36312 v -2.58488 c 0,-1.6625 -0.10121,-2.58488 -0.28362,-2.58488 -0.33645,0 -2.00295,0.94152 -4.77187,2.69596 -1.10702,0.70143 -2.66522,1.4998 -3.46264,1.77415 -2.02657,0.69724 -2.9906,1.232 -4.21481,2.338 -1.25975,1.13811 -1.68277,1.89363 -2.04537,3.65309 -0.1488,0.72202 -0.51207,1.96761 -0.80727,2.76797 -0.2952,0.80037 -0.54062,1.78871 -0.54537,2.19631 -0.007,0.58177 -0.19351,0.81887 -0.86853,1.10281 -1.1031,0.46401 -2.15637,1.57764 -2.76253,2.92085 -0.26324,0.58332 -0.88575,1.62512 -1.383366,2.3151 -0.828898,1.14934 -0.996778,1.25451 -2.002499,1.25451 -2.109101,0 -3.718052,0.69814 -5.542713,2.40502 -0.934638,0.8743 -2.146887,2.17651 -2.693886,2.89378 -0.546999,0.71727 -1.041483,1.25719 -1.098852,1.19982 -0.205876,-0.20587 0.802091,-4.56942 1.703948,-7.37649 0.505771,-1.57423 1.614196,-4.43173 2.463167,-6.35 0.848971,-1.91826 1.68034,-4.02353 1.847487,-4.67838 0.644118,-2.5235 1.406026,-4.54439 1.973437,-5.23434 0.325113,-0.39533 0.792021,-1.55222 1.037572,-2.57086 0.897824,-3.72454 2.860255,-6.48221 5.532195,-7.77398 0.95331,-0.46089 1.25677,-0.75303 1.25677,-1.20991 0,-1.07367 1.81786,-4.30662 2.99053,-5.31846 1.82339,-1.57333 3.23187,-2.12631 7.32822,-2.87716 2.11005,-0.38676 4.86262,-1.05514 6.11682,-1.48529 1.2542,-0.43014 2.57061,-0.78207 2.92537,-0.78207 0.35476,0 2.37605,0.69766 4.49174,1.55037 2.1157,0.85271 4.26281,1.62844 4.77137,1.72384 1.34807,0.2529 2.59678,1.77393 2.59678,3.1631 0,0.49292 0.3253,0.86002 1.33792,1.50981 1.26075,0.80902 1.5698,0.87941 5.35782,1.22021 6.10566,0.54931 10.23405,1.13599 11.08298,1.57499 1.16608,0.60301 1.43846,1.44359 0.91333,2.81863 -0.23969,0.62761 -0.4358,1.78415 -0.4358,2.57008 0,3.63486 -2.48236,5.80673 -8.33325,7.29094 -1.40423,0.35621 -2.66933,0.71946 -2.81133,0.80722 -0.35372,0.21861 0.24227,0.90467 0.79208,0.9118 0.86864,0.0113 3.9611,1.26343 5.16371,2.09085 1.39037,0.9566 3.25471,3.17329 3.50389,4.16611 0.30475,1.2142 -0.29326,1.30468 -1.80857,0.27365 -2.18519,-1.48682 -3.72835,-1.58808 -2.43581,-0.15984 0.26483,0.29263 0.35502,0.67192 0.24339,1.02362 -0.20879,0.65784 -2.54508,2.57493 -3.76447,3.089 -1.3068,0.55094 -4.13878,0.4313 -7.1691,-0.30286 -2.88686,-0.6994 -4.86018,-0.83081 -5.99529,-0.39924 -0.90742,0.345 -4.16045,3.65985 -5.35046,5.45214 -0.75863,1.14258 -1.28669,2.66628 -2.7173,7.84072 -1.59441,5.76693 -2.6183,8.71632 -2.6425,7.61193 z"
       id="path248" /></g></svg>
