<?xml version="1.0" encoding="UTF-8" standalone="no"?>
<!-- Created with Inkscape (http://www.inkscape.org/) -->

<svg
   width="65.931686mm"
   height="56.093216mm"
   viewBox="0 0 65.931686 56.093216"
   version="1.1"
   id="svg5"
   xml:space="preserve"
   xmlns:inkscape="http://www.inkscape.org/namespaces/inkscape"
   xmlns:sodipodi="http://sodipodi.sourceforge.net/DTD/sodipodi-0.dtd"
   xmlns="http://www.w3.org/2000/svg"
   xmlns:svg="http://www.w3.org/2000/svg"><sodipodi:namedview
     id="namedview7"
     pagecolor="#ffffff"
     bordercolor="#000000"
     borderopacity="0.25"
     inkscape:showpageshadow="2"
     inkscape:pageopacity="0.0"
     inkscape:pagecheckerboard="0"
     inkscape:deskcolor="#d1d1d1"
     inkscape:document-units="mm"
     showgrid="false" /><defs
     id="defs2" /><g
     inkscape:label="Vrstva 1"
     inkscape:groupmode="layer"
     id="layer1"
     transform="translate(-132.88704,-190.5471)"><path
       style="fill:#000000;stroke-width:0.264583"
       d="m 164.81561,246.45529 c -0.006,-0.17367 0.40894,-2.01914 0.92171,-4.10104 1.07798,-4.37677 1.37478,-7.03376 0.95482,-8.54779 -0.18189,-0.65575 -0.23045,-2.02145 -0.12766,-3.59023 0.1659,-2.5319 0.1659,-2.5319 1.46692,-3.12875 0.75039,-0.34425 1.42473,-0.86838 1.59333,-1.23841 0.16077,-0.35286 0.43268,-0.64157 0.60425,-0.64157 0.3058,0 0.92604,-1.08425 0.92604,-1.61884 0,-0.14907 0.17859,-0.44963 0.39687,-0.66791 0.61426,-0.61426 0.48382,-1.07033 -0.66145,-2.31281 -0.97965,-1.06279 -1.05834,-1.2616 -1.05834,-2.67399 0,-1.52584 0,-1.52584 -2.28627,-3.86222 -2.28628,-2.33638 -2.28628,-2.33638 -2.14871,-4.74903 0.10681,-1.87345 0.0581,-2.44314 -0.21797,-2.54907 -0.3803,-0.14594 -2.4766,0.96274 -4.91314,2.59841 -0.82296,0.55247 -2.25968,1.29182 -3.1927,1.64301 -2.44798,0.92142 -3.65675,1.59165 -4.67753,2.59359 -0.98744,0.96921 -1.86337,2.6572 -1.87245,3.60836 -0.003,0.33465 -0.19278,0.96999 -0.42128,1.41188 -0.22851,0.44188 -0.57773,1.57893 -0.77604,2.52679 -0.19832,0.94785 -0.39831,1.74126 -0.44443,1.76312 -1.86549,0.88445 -2.22958,1.21836 -3.23874,2.97029 -2.07282,3.59846 -1.96333,3.48564 -3.57881,3.68748 -3.21379,0.40154 -4.71765,1.35923 -7.88867,5.02365 -1.37375,1.5875 -1.37375,1.5875 -1.22211,0.66146 0.58619,-3.57977 2.59482,-9.6874 4.3942,-13.36146 0.42761,-0.87312 1.17181,-2.89718 1.65377,-4.49791 1.10961,-3.68533 1.38222,-4.37412 1.98963,-5.02709 0.27074,-0.29104 0.67781,-1.33284 0.90461,-2.3151 0.836,-3.62077 2.80571,-6.40059 5.50421,-7.76803 0.7689,-0.38963 1.26823,-0.82141 1.27204,-1.09997 0.0119,-0.86637 1.23524,-3.44516 2.18086,-4.59712 1.12264,-1.3676 3.29881,-2.73898 4.95661,-3.12356 0.65485,-0.15191 2.55985,-0.53019 4.23333,-0.84061 1.67349,-0.31043 4.05382,-0.90626 5.28961,-1.32407 1.2358,-0.41781 2.49486,-0.75966 2.79791,-0.75966 0.30305,0 2.1209,0.64675 4.03965,1.43722 1.91876,0.79047 4.12133,1.62114 4.8946,1.84593 1.69712,0.49337 2.27397,1.07982 2.69119,2.73596 0.2693,1.06893 0.50068,1.37149 1.54702,2.02284 1.1333,0.7055 1.61475,0.80363 6.1034,1.24408 7.48943,0.73489 9.4644,1.03822 10.37836,1.59401 1.01935,0.61987 1.29362,1.55842 0.7861,2.69002 -0.20961,0.46735 -0.43533,1.62714 -0.50161,2.5773 -0.0728,1.04423 -0.34876,2.175 -0.69756,2.85871 -1.00933,1.97845 -3.96748,3.62582 -8.15335,4.54055 -1.22852,0.26847 -2.30556,0.56001 -2.39343,0.64788 -0.3004,0.3004 0.60171,0.84471 2.18999,1.32138 1.84813,0.55465 3.35451,1.28175 4.56524,2.20355 1.07626,0.81942 2.61359,2.88966 2.85241,3.8412 0.15948,0.63542 0.10525,0.71854 -0.46879,0.71854 -0.35702,0 -0.86076,-0.23385 -1.11942,-0.51966 -0.54213,-0.59905 -2.71178,-1.49557 -2.97716,-1.2302 -0.0982,0.0983 0.0283,0.52896 0.28124,0.95713 0.41429,0.70134 0.42029,0.83822 0.0605,1.38093 -0.52102,0.78597 -1.87445,1.8461 -3.25791,2.55189 -1.50649,0.76855 -3.72933,0.7344 -7.21218,-0.11079 -3.86495,-0.93791 -5.57748,-0.91623 -6.98082,0.0884 -1.31358,0.94036 -4.52742,4.57935 -5.18813,5.87444 -0.26149,0.51256 -1.26221,3.76712 -2.22384,7.23236 -1.54868,5.58069 -2.49793,8.35893 -2.52995,7.40454 z"
       id="path2355" /></g></svg>
